<svg width="16" height="16" viewBox="0 0 16 16" fill="none" xmlns="http://www.w3.org/2000/svg">
<path d="M11.56 3.63967C11.4018 3.63967 11.2471 3.68659 11.1156 3.7745C10.984 3.8624 10.8815 3.98735 10.8209 4.13353C10.7604 4.27971 10.7445 4.44056 10.7754 4.59575C10.8063 4.75093 10.8825 4.89348 10.9944 5.00536C11.1062 5.11724 11.2488 5.19343 11.404 5.2243C11.5592 5.25517 11.72 5.23933 11.8662 5.17878C12.0124 5.11823 12.1373 5.01569 12.2252 4.88413C12.3131 4.75257 12.36 4.5979 12.36 4.43967C12.36 4.2275 12.2758 4.02402 12.1257 3.87399C11.9757 3.72396 11.7722 3.63967 11.56 3.63967ZM14.6267 5.25301C14.6137 4.69987 14.5101 4.15261 14.32 3.63301C14.1505 3.18843 13.8867 2.78586 13.5467 2.45301C13.2166 2.11129 12.8131 1.84913 12.3667 1.68634C11.8485 1.49045 11.3006 1.38448 10.7467 1.37301C10.04 1.33301 9.81337 1.33301 8.00004 1.33301C6.18671 1.33301 5.96004 1.33301 5.25337 1.37301C4.69948 1.38448 4.1516 1.49045 3.63337 1.68634C3.18782 1.85077 2.78466 2.11271 2.45337 2.45301C2.11166 2.78313 1.84949 3.18663 1.68671 3.63301C1.49081 4.15124 1.38485 4.69911 1.37337 5.25301C1.33337 5.95967 1.33337 6.18634 1.33337 7.99967C1.33337 9.81301 1.33337 10.0397 1.37337 10.7463C1.38485 11.3002 1.49081 11.8481 1.68671 12.3663C1.84949 12.8127 2.11166 13.2162 2.45337 13.5463C2.78466 13.8866 3.18782 14.1486 3.63337 14.313C4.1516 14.5089 4.69948 14.6149 5.25337 14.6263C5.96004 14.6663 6.18671 14.6663 8.00004 14.6663C9.81337 14.6663 10.04 14.6663 10.7467 14.6263C11.3006 14.6149 11.8485 14.5089 12.3667 14.313C12.8131 14.1502 13.2166 13.8881 13.5467 13.5463C13.8882 13.2147 14.1523 12.8118 14.32 12.3663C14.5101 11.8467 14.6137 11.2995 14.6267 10.7463C14.6267 10.0397 14.6667 9.81301 14.6667 7.99967C14.6667 6.18634 14.6667 5.95967 14.6267 5.25301ZM13.4267 10.6663C13.4219 11.0895 13.3452 11.5088 13.2 11.9063C13.0936 12.1965 12.9226 12.4586 12.7 12.673C12.4838 12.8933 12.2222 13.064 11.9334 13.173C11.5358 13.3182 11.1166 13.3948 10.6934 13.3997C10.0267 13.433 9.78004 13.4397 8.02671 13.4397C6.27337 13.4397 6.02671 13.4397 5.36004 13.3997C4.92063 13.4079 4.4831 13.3402 4.06671 13.1997C3.79056 13.0851 3.54094 12.9149 3.33337 12.6997C3.1121 12.4855 2.94327 12.2231 2.84004 11.933C2.67728 11.5298 2.587 11.101 2.57337 10.6663C2.57337 9.99967 2.53337 9.75301 2.53337 7.99967C2.53337 6.24634 2.53337 5.99967 2.57337 5.33301C2.57636 4.90038 2.65534 4.47164 2.80671 4.06634C2.92407 3.78495 3.10422 3.53411 3.33337 3.33301C3.53592 3.10379 3.78623 2.92174 4.06671 2.79967C4.47307 2.65304 4.90137 2.57639 5.33337 2.57301C6.00004 2.57301 6.24671 2.53301 8.00004 2.53301C9.75337 2.53301 10 2.53301 10.6667 2.57301C11.0899 2.57786 11.5092 2.65451 11.9067 2.79967C12.2097 2.91211 12.4816 3.09491 12.7 3.33301C12.9185 3.53779 13.0892 3.78816 13.2 4.06634C13.3482 4.4723 13.4249 4.90086 13.4267 5.33301C13.46 5.99967 13.4667 6.24634 13.4667 7.99967C13.4667 9.75301 13.46 9.99967 13.4267 10.6663ZM8.00004 4.57967C7.32391 4.58099 6.66335 4.78269 6.10181 5.15929C5.54027 5.53588 5.10296 6.07047 4.84513 6.69551C4.5873 7.32055 4.52052 8.00799 4.65324 8.67096C4.78595 9.33394 5.1122 9.9427 5.59076 10.4203C6.06932 10.898 6.67871 11.223 7.34195 11.3544C8.00518 11.4859 8.69248 11.4177 9.31702 11.1587C9.94156 10.8997 10.4753 10.4613 10.8508 9.89903C11.2263 9.33676 11.4267 8.6758 11.4267 7.99967C11.4276 7.54974 11.3395 7.10408 11.1675 6.68831C10.9956 6.27255 10.7431 5.89488 10.4246 5.57704C10.1062 5.2592 9.72801 5.00746 9.31191 4.83629C8.8958 4.66513 8.44997 4.57792 8.00004 4.57967ZM8.00004 10.2197C7.56097 10.2197 7.13175 10.0895 6.76667 9.84554C6.4016 9.6016 6.11705 9.25488 5.94903 8.84923C5.781 8.44358 5.73704 7.99721 5.8227 7.56657C5.90836 7.13594 6.11979 6.74037 6.43026 6.4299C6.74074 6.11942 7.1363 5.90799 7.56694 5.82233C7.99758 5.73667 8.44395 5.78064 8.8496 5.94866C9.25525 6.11669 9.60197 6.40123 9.8459 6.76631C10.0898 7.13139 10.22 7.5606 10.22 7.99967C10.22 8.29121 10.1626 8.57989 10.0511 8.84923C9.93949 9.11857 9.77596 9.36331 9.56982 9.56945C9.36367 9.7756 9.11894 9.93912 8.8496 10.0507C8.58026 10.1623 8.29158 10.2197 8.00004 10.2197Z" fill="black" fill-opacity="0.6"/>
</svg>
