<svg width="16" height="16" viewBox="0 0 16 16" fill="none" xmlns="http://www.w3.org/2000/svg">
<path d="M7.99991 1.3335C7.12443 1.3335 6.25752 1.50593 5.44869 1.84097C4.63985 2.176 3.90492 2.66706 3.28587 3.28612C2.03562 4.53636 1.33324 6.23205 1.33324 8.00016C1.32742 9.53959 1.86044 11.0325 2.83991 12.2202L1.50658 13.5535C1.41407 13.6472 1.35141 13.7663 1.32649 13.8956C1.30158 14.0249 1.31552 14.1588 1.36658 14.2802C1.42195 14.4001 1.51171 14.5009 1.62448 14.5698C1.73724 14.6386 1.86791 14.6724 1.99991 14.6668H7.99991C9.76802 14.6668 11.4637 13.9645 12.714 12.7142C13.9642 11.464 14.6666 9.76827 14.6666 8.00016C14.6666 6.23205 13.9642 4.53636 12.714 3.28612C11.4637 2.03588 9.76802 1.3335 7.99991 1.3335ZM7.99991 13.3335H3.60658L4.22658 12.7135C4.35074 12.5886 4.42044 12.4196 4.42044 12.2435C4.42044 12.0674 4.35074 11.8984 4.22658 11.7735C3.35363 10.9015 2.81003 9.75386 2.68837 8.52603C2.56672 7.2982 2.87454 6.06617 3.5594 5.03984C4.24425 4.01352 5.26377 3.2564 6.44425 2.89748C7.62474 2.53855 8.89315 2.60003 10.0334 3.07144C11.1736 3.54284 12.1151 4.39501 12.6975 5.48276C13.2799 6.5705 13.4672 7.82653 13.2273 9.03683C12.9875 10.2471 12.3354 11.3369 11.3823 12.1203C10.4291 12.9038 9.23375 13.3325 7.99991 13.3335Z" fill="black" fill-opacity="0.6"/>
</svg>
