<svg width="16" height="16" viewBox="0 0 16 16" fill="none" xmlns="http://www.w3.org/2000/svg">
<path d="M11.8067 7.52676L8.47338 4.19343C8.40997 4.13273 8.33521 4.08516 8.25338 4.05343C8.09107 3.98675 7.90902 3.98675 7.74671 4.05343C7.66487 4.08516 7.59011 4.13273 7.52671 4.19343L4.19338 7.52676C4.13122 7.58892 4.08191 7.66271 4.04827 7.74393C4.01463 7.82514 3.99731 7.91219 3.99731 8.00009C3.99731 8.17763 4.06784 8.34789 4.19338 8.47343C4.31891 8.59896 4.48917 8.66949 4.66671 8.66949C4.84424 8.66949 5.01451 8.59896 5.14004 8.47343L7.33338 6.27343V11.3334C7.33338 11.5102 7.40361 11.6798 7.52864 11.8048C7.65366 11.9299 7.82323 12.0001 8.00004 12.0001C8.17685 12.0001 8.34642 11.9299 8.47145 11.8048C8.59647 11.6798 8.66671 11.5102 8.66671 11.3334V6.27343L10.86 8.47343C10.922 8.53591 10.9958 8.58551 11.077 8.61935C11.1582 8.6532 11.2454 8.67063 11.3334 8.67063C11.4214 8.67063 11.5085 8.6532 11.5898 8.61935C11.671 8.58551 11.7447 8.53591 11.8067 8.47343C11.8692 8.41145 11.9188 8.33772 11.9526 8.25648C11.9865 8.17524 12.0039 8.0881 12.0039 8.00009C12.0039 7.91209 11.9865 7.82495 11.9526 7.74371C11.9188 7.66247 11.8692 7.58874 11.8067 7.52676Z" fill="black" fill-opacity="0.6"/>
</svg>
