<svg width="16" height="16" viewBox="0 0 16 16" fill="none" xmlns="http://www.w3.org/2000/svg">
<path d="M11.6656 9.58733C11.467 9.4881 10.4879 9.008 10.3055 8.94238C10.123 8.87597 9.99035 8.84316 9.85772 9.04161C9.72508 9.23925 9.34325 9.68655 9.22669 9.81858C9.11093 9.95061 8.99437 9.96661 8.79582 9.86739C8.20905 9.63485 7.66746 9.30235 7.19534 8.88477C6.7599 8.48413 6.3866 8.02139 6.08762 7.51167C5.97186 7.31323 6.07556 7.20601 6.17524 7.10758C6.26447 7.01876 6.3746 6.87633 6.47347 6.76031C6.55537 6.66014 6.62249 6.54886 6.67283 6.42983C6.69932 6.37514 6.71165 6.31471 6.7087 6.25406C6.70575 6.19341 6.68762 6.13446 6.65595 6.08256C6.60611 5.98334 6.2082 5.00792 6.0426 4.61104C5.88103 4.22535 5.71704 4.27736 5.59405 4.27096C5.4783 4.26536 5.34566 4.26376 5.21302 4.26376C5.11213 4.26656 5.0129 4.29012 4.9216 4.33294C4.83029 4.37577 4.74888 4.43694 4.68248 4.51261C4.45741 4.72477 4.27921 4.98126 4.15922 5.26575C4.03923 5.55023 3.98007 5.85648 3.98553 6.16498C4.05008 6.91253 4.33254 7.62504 4.79823 8.21503C5.65186 9.48894 6.82366 10.52 8.19855 11.2069C8.56942 11.3655 8.94828 11.5049 9.3336 11.6246C9.73983 11.7473 10.1692 11.7739 10.5876 11.7022C10.8647 11.6463 11.1271 11.5338 11.3584 11.3719C11.5896 11.2099 11.7845 11.002 11.9309 10.7612C12.0615 10.4651 12.1017 10.1373 12.0466 9.81858C11.9976 9.73536 11.865 9.68655 11.6656 9.58733ZM13.6688 2.32254C12.3022 0.962519 10.4857 0.143186 8.55739 0.0170745C6.62912 -0.109037 4.7205 0.466668 3.18688 1.63701C1.65327 2.80735 0.599163 4.49256 0.220815 6.37892C-0.157533 8.26527 0.165661 10.2242 1.13023 11.891L0 15.9999L4.22347 14.8981C5.39161 15.5312 6.70047 15.863 8.03055 15.8631H8.03376C9.6094 15.8623 11.1495 15.3966 12.4593 14.525C13.7692 13.6533 14.7902 12.4147 15.3932 10.9657C15.9962 9.51668 16.1543 7.92227 15.8473 6.38389C15.5404 4.84552 14.7823 3.43221 13.6688 2.32253V2.32254ZM11.5523 13.5162C10.4977 14.1741 9.27835 14.5233 8.03376 14.5236H8.03055C6.84478 14.5235 5.68086 14.206 4.66077 13.6042L4.41881 13.4618L1.91238 14.1163L2.58119 11.6838L2.42444 11.4341C1.72873 10.3298 1.37764 9.04483 1.41554 7.74184C1.45345 6.43885 1.87866 5.17631 2.6374 4.11386C3.39614 3.05142 4.45433 2.23679 5.67817 1.77299C6.90202 1.30918 8.23654 1.21703 9.51299 1.50819C10.7894 1.79935 11.9505 2.46074 12.8493 3.40873C13.7482 4.35672 14.3444 5.54873 14.5627 6.83403C14.781 8.11933 14.6115 9.4402 14.0756 10.6296C13.5398 11.819 12.6616 12.8235 11.5523 13.5162Z" fill="black" fill-opacity="0.6"/>
</svg>
